<mxfile host="app.diagrams.net" agent="Mozilla/5.0 (Windows NT 10.0; Win64; x64; rv:135.0) Gecko/20100101 Firefox/135.0" version="26.0.14">
  <diagram name="Page-1" id="jGX7wLICVnVVTPYH7MTh">
    <mxGraphModel dx="1547" dy="2117" grid="1" gridSize="10" guides="1" tooltips="1" connect="1" arrows="1" fold="1" page="1" pageScale="1" pageWidth="850" pageHeight="1100" math="0" shadow="0">
      <root>
        <mxCell id="0" />
        <mxCell id="1" parent="0" />
        <mxCell id="rIsvu3J8an1d6hR5XPZ0-13" value="" style="rounded=1;whiteSpace=wrap;html=1;fillColor=none;strokeWidth=3;strokeColor=#A9C4EB;glass=1;shadow=1;dashed=1;" vertex="1" parent="1">
          <mxGeometry x="280" y="139.68" width="220" height="200" as="geometry" />
        </mxCell>
        <mxCell id="rIsvu3J8an1d6hR5XPZ0-18" value="" style="rounded=1;whiteSpace=wrap;html=1;fillColor=none;strokeWidth=3;strokeColor=#A9C4EB;glass=1;shadow=1;" vertex="1" parent="1">
          <mxGeometry x="90" y="3.56" width="580" height="446.44" as="geometry" />
        </mxCell>
        <mxCell id="rIsvu3J8an1d6hR5XPZ0-21" value="" style="rounded=1;whiteSpace=wrap;html=1;fillColor=none;strokeWidth=3;strokeColor=#A9C4EB;glass=1;shadow=1;dashed=1;" vertex="1" parent="1">
          <mxGeometry x="190" y="60" width="394" height="340" as="geometry" />
        </mxCell>
        <mxCell id="rIsvu3J8an1d6hR5XPZ0-27" style="edgeStyle=orthogonalEdgeStyle;rounded=1;orthogonalLoop=1;jettySize=auto;html=1;strokeColor=#3399FF;strokeWidth=2;startArrow=classic;startFill=1;curved=0;jumpStyle=arc;" edge="1" parent="1" source="rIsvu3J8an1d6hR5XPZ0-1" target="rIsvu3J8an1d6hR5XPZ0-9">
          <mxGeometry relative="1" as="geometry" />
        </mxCell>
        <mxCell id="rIsvu3J8an1d6hR5XPZ0-29" style="edgeStyle=orthogonalEdgeStyle;rounded=1;orthogonalLoop=1;jettySize=auto;html=1;startArrow=classic;startFill=1;strokeColor=#3399FF;strokeWidth=2;curved=0;jumpStyle=arc;" edge="1" parent="1" source="rIsvu3J8an1d6hR5XPZ0-1" target="rIsvu3J8an1d6hR5XPZ0-11">
          <mxGeometry relative="1" as="geometry">
            <Array as="points">
              <mxPoint x="435" y="250" />
              <mxPoint x="336" y="250" />
            </Array>
          </mxGeometry>
        </mxCell>
        <mxCell id="rIsvu3J8an1d6hR5XPZ0-1" value="Standard_B1s" style="image;aspect=fixed;html=1;points=[];align=center;fontSize=12;image=img/lib/azure2/compute/Virtual_Machine.svg;" vertex="1" parent="1">
          <mxGeometry x="403" y="159.68" width="64" height="59.36" as="geometry" />
        </mxCell>
        <mxCell id="rIsvu3J8an1d6hR5XPZ0-2" value="&lt;div&gt;Azure OpenAI&lt;/div&gt;&lt;div&gt;Embedding Model&lt;/div&gt;" style="image;aspect=fixed;html=1;points=[];align=center;fontSize=12;image=img/lib/azure2/ai_machine_learning/Azure_OpenAI.svg;labelPosition=center;verticalLabelPosition=top;verticalAlign=bottom;" vertex="1" parent="1">
          <mxGeometry x="273" y="-230.59" width="64" height="64" as="geometry" />
        </mxCell>
        <mxCell id="rIsvu3J8an1d6hR5XPZ0-3" value="&lt;div&gt;Azure OpenAI&lt;/div&gt;&lt;div&gt;GPT-4o mini&lt;/div&gt;" style="image;aspect=fixed;html=1;points=[];align=center;fontSize=12;image=img/lib/azure2/ai_machine_learning/Azure_OpenAI.svg;labelPosition=center;verticalLabelPosition=top;verticalAlign=bottom;" vertex="1" parent="1">
          <mxGeometry x="443" y="-230.59" width="64" height="64" as="geometry" />
        </mxCell>
        <mxCell id="rIsvu3J8an1d6hR5XPZ0-4" value="&lt;div&gt;External&lt;/div&gt;&lt;div&gt;Confluence&lt;/div&gt;" style="image;html=1;image=img/lib/atlassian/Confluence_Logo.svg;" vertex="1" parent="1">
          <mxGeometry x="780" y="132.40000000000003" width="64" height="57" as="geometry" />
        </mxCell>
        <mxCell id="rIsvu3J8an1d6hR5XPZ0-6" value="Slack Workspace" style="shape=image;html=1;verticalAlign=top;verticalLabelPosition=bottom;labelBackgroundColor=#ffffff;imageAspect=0;aspect=fixed;image=https://cdn2.iconfinder.com/data/icons/social-media-2285/512/1_Slack_colored_svg-128.png" vertex="1" parent="1">
          <mxGeometry x="780" y="275.68" width="64" height="64" as="geometry" />
        </mxCell>
        <mxCell id="rIsvu3J8an1d6hR5XPZ0-7" value="Secrets Vault" style="image;aspect=fixed;html=1;points=[];align=center;fontSize=12;image=img/lib/azure2/security/Key_Vaults.svg;labelPosition=center;verticalLabelPosition=top;verticalAlign=bottom;" vertex="1" parent="1">
          <mxGeometry x="553" y="-100" width="64" height="64" as="geometry" />
        </mxCell>
        <mxCell id="rIsvu3J8an1d6hR5XPZ0-31" style="edgeStyle=orthogonalEdgeStyle;rounded=1;orthogonalLoop=1;jettySize=auto;html=1;startArrow=classic;startFill=1;strokeColor=#97D077;strokeWidth=2;curved=0;jumpStyle=arc;" edge="1" parent="1" source="rIsvu3J8an1d6hR5XPZ0-8" target="rIsvu3J8an1d6hR5XPZ0-9">
          <mxGeometry relative="1" as="geometry" />
        </mxCell>
        <mxCell id="rIsvu3J8an1d6hR5XPZ0-8" value="&lt;div&gt;Restricted Public&lt;/div&gt;&lt;div&gt;IP - Management&lt;/div&gt;" style="image;aspect=fixed;html=1;points=[];align=right;fontSize=12;image=img/lib/azure2/networking/Public_IP_Addresses.svg;labelPosition=left;verticalLabelPosition=bottom;verticalAlign=top;" vertex="1" parent="1">
          <mxGeometry x="419" y="480" width="32" height="25.6" as="geometry" />
        </mxCell>
        <mxCell id="rIsvu3J8an1d6hR5XPZ0-9" value="Compute NIC" style="image;aspect=fixed;html=1;points=[];align=center;fontSize=12;image=img/lib/azure2/networking/Network_Interfaces.svg;" vertex="1" parent="1">
          <mxGeometry x="419" y="281.125" width="32" height="28.23" as="geometry" />
        </mxCell>
        <mxCell id="rIsvu3J8an1d6hR5XPZ0-11" value="Compute Disk" style="image;aspect=fixed;html=1;points=[];align=center;fontSize=12;image=img/lib/azure2/compute/Disks.svg;" vertex="1" parent="1">
          <mxGeometry x="320" y="279.52" width="32" height="31.44" as="geometry" />
        </mxCell>
        <mxCell id="rIsvu3J8an1d6hR5XPZ0-12" value="&lt;div&gt;Azure AI&lt;/div&gt;&lt;div&gt;Services&lt;/div&gt;" style="image;aspect=fixed;html=1;points=[];align=center;fontSize=12;image=img/lib/azure2/ai_machine_learning/Cognitive_Services.svg;labelPosition=center;verticalLabelPosition=top;verticalAlign=bottom;" vertex="1" parent="1">
          <mxGeometry x="358" y="-81.18" width="64" height="45.18" as="geometry" />
        </mxCell>
        <mxCell id="rIsvu3J8an1d6hR5XPZ0-14" style="edgeStyle=orthogonalEdgeStyle;rounded=1;orthogonalLoop=1;jettySize=auto;html=1;entryX=0.446;entryY=1.001;entryDx=0;entryDy=0;entryPerimeter=0;curved=0;exitX=0.017;exitY=0.07;exitDx=0;exitDy=0;exitPerimeter=0;strokeColor=#3399FF;startArrow=classic;startFill=1;strokeWidth=1;" edge="1" parent="1" source="rIsvu3J8an1d6hR5XPZ0-12" target="rIsvu3J8an1d6hR5XPZ0-2">
          <mxGeometry relative="1" as="geometry" />
        </mxCell>
        <mxCell id="rIsvu3J8an1d6hR5XPZ0-15" value="" style="edgeStyle=orthogonalEdgeStyle;rounded=1;orthogonalLoop=1;jettySize=auto;entryX=0.505;entryY=1.001;entryDx=0;entryDy=0;entryPerimeter=0;html=1;horizontal=1;verticalAlign=bottom;curved=0;strokeColor=#3399FF;startArrow=classic;startFill=1;strokeWidth=1;" edge="1" parent="1" target="rIsvu3J8an1d6hR5XPZ0-3">
          <mxGeometry relative="1" as="geometry">
            <mxPoint x="423" y="-80.59" as="sourcePoint" />
          </mxGeometry>
        </mxCell>
        <mxCell id="rIsvu3J8an1d6hR5XPZ0-17" value="Slackbot Compute" style="text;html=1;align=center;verticalAlign=middle;whiteSpace=wrap;rounded=0;" vertex="1" parent="1">
          <mxGeometry x="306" y="189.04000000000002" width="60" height="30" as="geometry" />
        </mxCell>
        <mxCell id="rIsvu3J8an1d6hR5XPZ0-5" value="&lt;div&gt;CosmosDB Vector&lt;/div&gt;&lt;div&gt;Store&lt;/div&gt;" style="image;sketch=0;aspect=fixed;html=1;points=[];align=center;fontSize=12;image=img/lib/mscae/CosmosDB.svg;labelPosition=center;verticalLabelPosition=top;verticalAlign=bottom;imageBackground=default;" vertex="1" parent="1">
          <mxGeometry x="171" y="-100" width="64" height="64" as="geometry" />
        </mxCell>
        <mxCell id="rIsvu3J8an1d6hR5XPZ0-19" value="" style="verticalLabelPosition=bottom;html=1;verticalAlign=top;align=center;strokeColor=none;fillColor=#00BEF2;shape=mxgraph.azure.service_endpoint;rotation=-90;" vertex="1" parent="1">
          <mxGeometry x="178" y="-20" width="50" height="20" as="geometry" />
        </mxCell>
        <mxCell id="rIsvu3J8an1d6hR5XPZ0-10" value="&lt;div&gt;Virtual Network&lt;/div&gt;&lt;div&gt;10.0.0.0/24&lt;/div&gt;" style="image;aspect=fixed;html=1;points=[];align=center;fontSize=12;image=img/lib/azure2/networking/Virtual_Networks.svg;imageBackground=default;" vertex="1" parent="1">
          <mxGeometry x="116" y="23.560000000000002" width="67" height="40" as="geometry" />
        </mxCell>
        <mxCell id="rIsvu3J8an1d6hR5XPZ0-20" value="&lt;div&gt;Compute Subnet&lt;/div&gt;&lt;div&gt;10.0.0.0/28&lt;/div&gt;" style="image;aspect=fixed;html=1;points=[];align=center;fontSize=12;image=img/lib/azure2/networking/Subnet.svg;" vertex="1" parent="1">
          <mxGeometry x="204" y="70" width="68" height="40.72" as="geometry" />
        </mxCell>
        <mxCell id="rIsvu3J8an1d6hR5XPZ0-22" value="" style="verticalLabelPosition=bottom;html=1;verticalAlign=top;align=center;strokeColor=none;fillColor=#00BEF2;shape=mxgraph.azure.service_endpoint;rotation=-90;" vertex="1" parent="1">
          <mxGeometry x="560" y="-16.44" width="50" height="20" as="geometry" />
        </mxCell>
        <mxCell id="rIsvu3J8an1d6hR5XPZ0-23" value="" style="verticalLabelPosition=bottom;html=1;verticalAlign=top;align=center;strokeColor=none;fillColor=#00BEF2;shape=mxgraph.azure.service_endpoint;rotation=-90;" vertex="1" parent="1">
          <mxGeometry x="364" y="-16.44" width="50" height="20" as="geometry" />
        </mxCell>
        <mxCell id="rIsvu3J8an1d6hR5XPZ0-36" style="edgeStyle=orthogonalEdgeStyle;rounded=1;orthogonalLoop=1;jettySize=auto;html=1;entryX=0.999;entryY=0.569;entryDx=0;entryDy=0;entryPerimeter=0;strokeWidth=1;startArrow=classic;startFill=1;strokeColor=#67AB9F;curved=0;" edge="1" parent="1" source="rIsvu3J8an1d6hR5XPZ0-4" target="rIsvu3J8an1d6hR5XPZ0-9">
          <mxGeometry relative="1" as="geometry">
            <Array as="points">
              <mxPoint x="550" y="161" />
              <mxPoint x="550" y="297" />
            </Array>
          </mxGeometry>
        </mxCell>
        <mxCell id="rIsvu3J8an1d6hR5XPZ0-41" value="" style="sketch=0;pointerEvents=1;shadow=0;dashed=0;html=1;strokeColor=none;labelPosition=center;verticalLabelPosition=bottom;verticalAlign=top;align=center;fillColor=#97D077;shape=mxgraph.mscae.system_center.admin_console" vertex="1" parent="1">
          <mxGeometry x="410" y="600" width="50" height="36" as="geometry" />
        </mxCell>
        <mxCell id="rIsvu3J8an1d6hR5XPZ0-42" style="edgeStyle=orthogonalEdgeStyle;rounded=0;orthogonalLoop=1;jettySize=auto;html=1;entryX=0.507;entryY=1.269;entryDx=0;entryDy=0;entryPerimeter=0;startArrow=classic;startFill=1;strokeWidth=2;strokeColor=#97D077;" edge="1" parent="1" source="rIsvu3J8an1d6hR5XPZ0-41" target="rIsvu3J8an1d6hR5XPZ0-8">
          <mxGeometry relative="1" as="geometry" />
        </mxCell>
        <mxCell id="rIsvu3J8an1d6hR5XPZ0-43" value="Legend" style="shape=table;startSize=30;container=1;collapsible=0;childLayout=tableLayout;fontSize=16;align=left;verticalAlign=top;fillColor=none;strokeColor=none;fontColor=#4D4D4D;fontStyle=1;spacingLeft=6;spacing=0;resizable=0;" vertex="1" parent="1">
          <mxGeometry x="722" y="-110" width="180" height="150" as="geometry" />
        </mxCell>
        <mxCell id="rIsvu3J8an1d6hR5XPZ0-44" value="" style="shape=tableRow;horizontal=0;startSize=0;swimlaneHead=0;swimlaneBody=0;strokeColor=inherit;top=0;left=0;bottom=0;right=0;collapsible=0;dropTarget=0;fillColor=none;points=[[0,0.5],[1,0.5]];portConstraint=eastwest;fontSize=12;" vertex="1" parent="rIsvu3J8an1d6hR5XPZ0-43">
          <mxGeometry y="30" width="180" height="30" as="geometry" />
        </mxCell>
        <mxCell id="rIsvu3J8an1d6hR5XPZ0-45" value="Intermittent Scrape" style="shape=partialRectangle;html=1;whiteSpace=wrap;connectable=0;strokeColor=inherit;overflow=hidden;fillColor=#67AB9F;top=0;left=0;bottom=0;right=0;pointerEvents=1;fontSize=12;align=left;fontColor=#FFFFFF;gradientColor=none;spacingLeft=10;spacingRight=4;" vertex="1" parent="rIsvu3J8an1d6hR5XPZ0-44">
          <mxGeometry width="180" height="30" as="geometry">
            <mxRectangle width="180" height="30" as="alternateBounds" />
          </mxGeometry>
        </mxCell>
        <mxCell id="rIsvu3J8an1d6hR5XPZ0-46" value="" style="shape=tableRow;horizontal=0;startSize=0;swimlaneHead=0;swimlaneBody=0;strokeColor=inherit;top=0;left=0;bottom=0;right=0;collapsible=0;dropTarget=0;fillColor=none;points=[[0,0.5],[1,0.5]];portConstraint=eastwest;fontSize=12;" vertex="1" parent="rIsvu3J8an1d6hR5XPZ0-43">
          <mxGeometry y="60" width="180" height="30" as="geometry" />
        </mxCell>
        <mxCell id="rIsvu3J8an1d6hR5XPZ0-47" value="Admin Access" style="shape=partialRectangle;html=1;whiteSpace=wrap;connectable=0;strokeColor=inherit;overflow=hidden;fillColor=#97D077;top=0;left=0;bottom=0;right=0;pointerEvents=1;fontSize=12;align=left;fontColor=#FFFFFF;gradientColor=none;spacingLeft=10;spacingRight=4;" vertex="1" parent="rIsvu3J8an1d6hR5XPZ0-46">
          <mxGeometry width="180" height="30" as="geometry">
            <mxRectangle width="180" height="30" as="alternateBounds" />
          </mxGeometry>
        </mxCell>
        <mxCell id="rIsvu3J8an1d6hR5XPZ0-48" value="" style="shape=tableRow;horizontal=0;startSize=0;swimlaneHead=0;swimlaneBody=0;strokeColor=inherit;top=0;left=0;bottom=0;right=0;collapsible=0;dropTarget=0;fillColor=none;points=[[0,0.5],[1,0.5]];portConstraint=eastwest;fontSize=12;" vertex="1" parent="rIsvu3J8an1d6hR5XPZ0-43">
          <mxGeometry y="90" width="180" height="30" as="geometry" />
        </mxCell>
        <mxCell id="rIsvu3J8an1d6hR5XPZ0-49" value="Internal Services" style="shape=partialRectangle;html=1;whiteSpace=wrap;connectable=0;strokeColor=inherit;overflow=hidden;fillColor=#52a2d8;top=0;left=0;bottom=0;right=0;pointerEvents=1;fontSize=12;align=left;fontColor=#FFFFFF;gradientColor=none;spacingLeft=10;spacingRight=4;" vertex="1" parent="rIsvu3J8an1d6hR5XPZ0-48">
          <mxGeometry width="180" height="30" as="geometry">
            <mxRectangle width="180" height="30" as="alternateBounds" />
          </mxGeometry>
        </mxCell>
        <mxCell id="rIsvu3J8an1d6hR5XPZ0-50" value="" style="shape=tableRow;horizontal=0;startSize=0;swimlaneHead=0;swimlaneBody=0;strokeColor=inherit;top=0;left=0;bottom=0;right=0;collapsible=0;dropTarget=0;fillColor=none;points=[[0,0.5],[1,0.5]];portConstraint=eastwest;fontSize=12;" vertex="1" parent="rIsvu3J8an1d6hR5XPZ0-43">
          <mxGeometry y="120" width="180" height="30" as="geometry" />
        </mxCell>
        <mxCell id="rIsvu3J8an1d6hR5XPZ0-51" value="Chat" style="shape=partialRectangle;html=1;whiteSpace=wrap;connectable=0;strokeColor=inherit;overflow=hidden;fillColor=#B5739D;top=0;left=0;bottom=0;right=0;pointerEvents=1;fontSize=12;align=left;fontColor=#FFFFFF;gradientColor=none;spacingLeft=10;spacingRight=4;" vertex="1" parent="rIsvu3J8an1d6hR5XPZ0-50">
          <mxGeometry width="180" height="30" as="geometry">
            <mxRectangle width="180" height="30" as="alternateBounds" />
          </mxGeometry>
        </mxCell>
        <mxCell id="rIsvu3J8an1d6hR5XPZ0-56" style="edgeStyle=orthogonalEdgeStyle;rounded=1;orthogonalLoop=1;jettySize=auto;html=1;entryX=0.972;entryY=0.217;entryDx=0;entryDy=0;entryPerimeter=0;startArrow=classic;startFill=1;curved=0;strokeColor=#3399FF;" edge="1" parent="1" source="rIsvu3J8an1d6hR5XPZ0-22" target="rIsvu3J8an1d6hR5XPZ0-9">
          <mxGeometry relative="1" as="geometry">
            <Array as="points">
              <mxPoint x="585" y="40" />
              <mxPoint x="540" y="40" />
              <mxPoint x="540" y="287" />
            </Array>
          </mxGeometry>
        </mxCell>
        <mxCell id="rIsvu3J8an1d6hR5XPZ0-59" style="edgeStyle=orthogonalEdgeStyle;rounded=1;orthogonalLoop=1;jettySize=auto;html=1;entryX=0.992;entryY=0.24;entryDx=0;entryDy=0;entryPerimeter=0;startArrow=classic;startFill=1;curved=0;strokeColor=#3399FF;" edge="1" parent="1" source="rIsvu3J8an1d6hR5XPZ0-23" target="rIsvu3J8an1d6hR5XPZ0-9">
          <mxGeometry relative="1" as="geometry">
            <Array as="points">
              <mxPoint x="389" y="40" />
              <mxPoint x="540" y="40" />
              <mxPoint x="540" y="288" />
            </Array>
          </mxGeometry>
        </mxCell>
        <mxCell id="rIsvu3J8an1d6hR5XPZ0-60" style="edgeStyle=orthogonalEdgeStyle;rounded=1;orthogonalLoop=1;jettySize=auto;html=1;entryX=0.992;entryY=0.24;entryDx=0;entryDy=0;entryPerimeter=0;startArrow=classic;startFill=1;curved=0;strokeColor=#3399FF;" edge="1" parent="1" source="rIsvu3J8an1d6hR5XPZ0-19" target="rIsvu3J8an1d6hR5XPZ0-9">
          <mxGeometry relative="1" as="geometry">
            <Array as="points">
              <mxPoint x="203" y="40" />
              <mxPoint x="540" y="40" />
              <mxPoint x="540" y="288" />
            </Array>
          </mxGeometry>
        </mxCell>
        <mxCell id="rIsvu3J8an1d6hR5XPZ0-61" style="edgeStyle=orthogonalEdgeStyle;rounded=0;orthogonalLoop=1;jettySize=auto;html=1;entryX=1.013;entryY=0.906;entryDx=0;entryDy=0;entryPerimeter=0;strokeColor=#B5739D;" edge="1" parent="1" source="rIsvu3J8an1d6hR5XPZ0-6" target="rIsvu3J8an1d6hR5XPZ0-9">
          <mxGeometry relative="1" as="geometry" />
        </mxCell>
      </root>
    </mxGraphModel>
  </diagram>
</mxfile>
